<svg width="512" height="512" xmlns="http://www.w3.org/2000/svg">

 <g>
  <title>background</title>
  <rect fill="none" id="canvas_background" height="402" width="582" y="-1" x="-1"/>
 </g>
 <g>
  <title>Layer 1</title>
  <path id="svg_2" fill="#8EAA39" d="m267.39,406.9c-0.05,1.13 -0.12,2.25 -0.199,3.38c-15.021,1.12 -29.98,-0.29 -44.17,-4.26c-19.05,-5.32 -36.74,-15.26 -51.37,-29.891c-14.32,-14.319 -24.141,-31.55 -29.54,-50.13c-4.24,-14.56 -5.76,-29.949 -4.61,-45.41c15.7,-1.18 31.32,0.41 46.08,4.801c18.33,5.449 35.32,15.199 49.46,29.34c14.47,14.47 24.34,31.92 29.71,50.72c3.21,11.25 4.81,22.99 4.81,34.87c-0.001,2.191 -0.051,4.38 -0.171,6.58z"/>
  <path id="svg_3" fill="#849B31" d="m142.024,296.746c15.7,-1.18 31.32,0.41 46.08,4.801c18.33,5.449 35.32,15.199 49.46,29.34c12.559,12.559 21.646,27.363 27.341,43.346c-0.613,-2.955 -1.329,-5.886 -2.155,-8.782c-5.37,-18.8 -15.24,-36.25 -29.71,-50.72c-14.14,-14.141 -31.13,-23.891 -49.46,-29.34c-14.76,-4.391 -30.38,-5.98 -46.08,-4.801c-1.149,15.461 0.37,30.851 4.61,45.41c0.669,2.303 1.407,4.585 2.213,6.844c-2.443,-11.74 -3.206,-23.896 -2.299,-36.098z"/>
  <path id="svg_4" fill="#8EAA39" d="m267.73,370.66c-0.12,-2.2 -0.171,-4.399 -0.171,-6.59c0,-11.87 1.601,-23.61 4.811,-34.86c5.37,-18.81 15.24,-36.25 29.71,-50.72c14.14,-14.14 31.14,-23.9 49.46,-29.34c14.76,-4.391 30.39,-5.98 46.08,-4.811c1.16,15.461 -0.37,30.851 -4.61,45.421c-5.399,18.579 -15.22,35.81 -29.54,50.119c-14.63,14.641 -32.31,24.57 -51.37,29.9c-14.189,3.96 -29.149,5.37 -44.17,4.25c-0.08,-1.119 -0.15,-2.249 -0.2,-3.369z"/>
  <path id="svg_5" fill="#849B31" d="m267.855,372.77c0.595,-8.882 2.098,-17.64 4.517,-26.118c5.37,-18.81 15.24,-36.25 29.71,-50.72c14.14,-14.14 31.14,-23.9 49.46,-29.34c14.76,-4.391 30.39,-5.98 46.08,-4.811c0.03,0.404 0.051,0.808 0.078,1.211c0.41,-6.173 0.389,-12.406 -0.08,-18.652c-15.69,-1.17 -31.32,0.42 -46.08,4.811c-18.32,5.439 -35.32,15.2 -49.46,29.34c-14.47,14.47 -24.34,31.91 -29.71,50.72c-3.21,11.25 -4.811,22.99 -4.811,34.86c0,2.19 0.051,4.39 0.171,6.59c0.032,0.7 0.081,1.404 0.125,2.109z"/>
  <path id="svg_6" fill="#849B31" d="m267.56,375.83c-1.284,0 -2.568,-0.492 -3.546,-1.475c-1.946,-1.958 -1.938,-5.124 0.021,-7.071l0.171,-0.17l63.25,-63.249c1.951,-1.953 5.119,-1.953 7.07,0c1.953,1.952 1.953,5.118 0,7.07l-63.44,63.44c-0.977,0.971 -2.252,1.455 -3.526,1.455z"/>
  <path id="svg_7" fill="#849B31" d="m267.56,412.07c-1.279,0 -2.56,-0.488 -3.535,-1.465l-63.43,-63.43c-1.953,-1.952 -1.953,-5.118 0,-7.07c1.953,-1.953 5.118,-1.953 7.071,0l63.429,63.43c1.953,1.952 1.953,5.118 0,7.07c-0.976,0.977 -2.256,1.465 -3.535,1.465z"/>
  <path id="svg_8" fill="#8EAA39" d="m389.89,144.3c12.511,0 22.65,10.141 22.65,22.65s-10.14,22.65 -22.65,22.65c-12.51,0 -22.659,-10.14 -22.659,-22.649s10.149,-22.651 22.659,-22.651z"/>
  <circle id="svg_9" fill="#FFD15C" r="22.65" cy="411.6" cx="398.95"/>
  <path id="svg_10" fill="#F7B64C" d="m402.999,403.021c7.689,0 14.479,3.834 18.572,9.691c0.018,-0.368 0.028,-0.738 0.028,-1.111c0,-12.511 -10.14,-22.65 -22.649,-22.65s-22.65,10.14 -22.65,22.65c0,4.82 1.511,9.285 4.077,12.957c0.58,-11.994 10.485,-21.537 22.622,-21.537z"/>
  <path id="svg_11" fill="#849B31" d="m375.34,175.54c0,-12.51 10.149,-22.649 22.659,-22.649c4.345,0 8.402,1.225 11.85,3.346c-3.821,-7.105 -11.324,-11.937 -19.959,-11.937c-12.51,0 -22.659,10.141 -22.659,22.65c0,8.162 4.322,15.313 10.801,19.3c-1.717,-3.189 -2.692,-6.835 -2.692,-10.71z"/>
  <path id="svg_12" fill="#EF3E5C" d="m145.23,180.54c12.52,0 22.66,10.14 22.66,22.65c0,12.51 -10.141,22.659 -22.66,22.659c-12.51,0 -22.65,-10.149 -22.65,-22.659c0,-12.51 10.141,-22.65 22.65,-22.65z"/>
  <path id="svg_13" fill="#E42A53" d="m132.126,214.143c0,-12.51 10.141,-22.649 22.65,-22.649c4.164,0 8.063,1.127 11.415,3.085c-3.391,-8.237 -11.493,-14.038 -20.961,-14.038c-12.51,0 -22.65,10.14 -22.65,22.65c0,8.352 4.522,15.646 11.249,19.576c-1.095,-2.66 -1.703,-5.571 -1.703,-8.624z"/>
  <path id="svg_14" fill="#743629" d="m267.56,448.32c-2.762,0 -5,-2.238 -5,-5l0,-244.66c0,-2.762 2.238,-5 5,-5s5,2.238 5,5l0,244.66c0,2.762 -2.239,5 -5,5z"/>
  <path id="svg_15" fill="#415A6B" d="m330.99,448.32l-235.59,0c-2.762,0 -5,-2.238 -5,-5s2.238,-5 5,-5l235.59,0c2.762,0 5,2.238 5,5s-2.238,5 -5,5z"/>
  <path id="svg_16" fill="#EF3E5C" d="m268.56,209.88c-0.31,0.311 -0.619,0.62 -0.93,0.931c-41.22,-41.221 -82.439,-64.69 -82.439,-105.91c0,-22.75 18.46,-41.221 41.22,-41.221c20.61,0 30.91,10.311 41.22,30.92c10.3,-20.609 20.61,-30.92 41.22,-30.92c22.801,0 41.261,18.471 41.261,41.221c-0.002,40.91 -40.642,64.339 -81.552,104.979z"/>
  <path id="svg_20" fill="#E42A53" d="m200.131,108.75c0,-22.75 18.46,-41.221 41.22,-41.221c1.27,0 2.499,0.04 3.692,0.118c-5.207,-2.64 -11.258,-3.968 -18.633,-3.968c-22.76,0 -41.22,18.471 -41.22,41.221c0,41.22 41.22,64.689 82.439,105.91c0.311,-0.311 0.62,-0.62 0.93,-0.931c1.509,-1.499 3.018,-2.972 4.524,-4.426c-37.825,-35.725 -72.952,-58.652 -72.952,-96.703z"/>
 </g>
</svg>