<svg width="512" height="512" xmlns="http://www.w3.org/2000/svg">

 <g>
  <title>background</title>
  <rect fill="none" id="canvas_background" height="514" width="514" y="-1" x="-1"/>
 </g>
 <g>
  <title>Layer 1</title>
  <path stroke="none" id="svg_3" d="m488.908385,219.005252c-3.18961,-7.437225 -7.265717,-14.306469 -12.063496,-20.518634c-0.282877,-0.363063 -0.563527,-0.721671 -0.85086,-1.08028c-0.432112,-0.541254 -0.866451,-1.08028 -1.307473,-1.612624c-10.542195,-12.575793 -24.282908,-22.391862 -39.965898,-28.183053c-0.191555,-0.069049 -0.378655,-0.13587 -0.565755,-0.204919c-1.213923,-0.438794 -2.44121,-0.853087 -3.675179,-1.245106c-0.198237,-0.060139 -0.392019,-0.131415 -0.590256,-0.189327c-1.365385,-0.420975 -2.746361,-0.812994 -4.134019,-1.176057c-0.265058,-0.064594 -0.532344,-0.126961 -0.797402,-0.191555c-1.098099,-0.273968 -2.20288,-0.527889 -3.31657,-0.766219c-0.434339,-0.09355 -0.870906,-0.182645 -1.3097,-0.269513c-1.091417,-0.216056 -2.187288,-0.412065 -3.294297,-0.590256c-0.316288,-0.049002 -0.623667,-0.106914 -0.939955,-0.155917c-1.372067,-0.204919 -2.757498,-0.378655 -4.149611,-0.523435c-0.398701,-0.046775 -0.79963,-0.075731 -1.202786,-0.113596c-1.07137,-0.100232 -2.149423,-0.180418 -3.229703,-0.245012c-0.429885,-0.026729 -0.859769,-0.053457 -1.289654,-0.071276c-1.443343,-0.064594 -2.895595,-0.111369 -4.352303,-0.111369c-1.447798,0 -2.884458,0.046775 -4.316664,0.111369c-0.454386,0.020046 -0.908771,0.046775 -1.36093,0.073504c-1.015686,0.062367 -2.024689,0.140325 -3.029238,0.231648c-0.47666,0.044548 -0.953319,0.082413 -1.427751,0.131415c-1.311927,0.140325 -2.614945,0.307379 -3.906826,0.498933c-0.565755,0.08464 -1.127055,0.189327 -1.690582,0.285105c-0.781811,0.131415 -1.559167,0.269513 -2.334295,0.418748c-0.688261,0.133643 -1.369839,0.276195 -2.053645,0.420975c-0.641486,0.140325 -1.278517,0.291787 -1.917775,0.445476c-1.213923,0.291787 -2.423391,0.605848 -3.619494,0.94441c-0.605848,0.171508 -1.213923,0.334107 -1.813088,0.514525c-0.752855,0.22942 -1.492345,0.47666 -2.236291,0.721671c-0.534571,0.17819 -1.069143,0.356381 -1.603714,0.543481c-0.726126,0.253921 -1.450025,0.514525 -2.169469,0.788493c-0.57021,0.216056 -1.138192,0.445476 -1.706174,0.674896c-1.004549,0.403156 -2.000188,0.821904 -2.989145,1.256243c-0.759537,0.334107 -1.519074,0.672669 -2.267474,1.026823c-0.552391,0.260604 -1.095871,0.534571 -1.64158,0.808539c-0.728354,0.360836 -1.447798,0.728354 -2.165014,1.109236c-0.465523,0.245012 -0.931045,0.492251 -1.394341,0.746173c-1.13151,0.623667 -2.251882,1.262925 -3.356663,1.931139c-0.031183,0.020046 -0.064594,0.037865 -0.095777,0.055685c-1.227287,0.746173 -2.4323,1.525756 -3.619494,2.323158c-0.17819,0.122506 -0.356381,0.245012 -0.532344,0.363063c-1.102554,0.755082 -2.189516,1.525756 -3.260886,2.323158c-0.069049,0.049002 -0.140325,0.098005 -0.204919,0.149235c-23.064531,17.293387 -38.012485,44.84609 -38.012485,75.824506c0,52.236541 42.493976,94.732744 94.723834,94.732744c52.341228,0 94.926526,-42.496203 94.926526,-94.732744c0,-12.878717 -2.599354,-25.164951 -7.285763,-36.370905c-0.22942,-0.345244 -0.438794,-0.710535 -0.60362,-1.102554zm-23.046712,10.049943l-82.181452,66.228948c-1.349793,1.086962 -2.969099,1.619306 -4.579495,1.619306c-2.127149,0 -4.232024,-0.924363 -5.677594,-2.701813l-36.627054,-45.120058c-2.543669,-3.131698 -2.069237,-7.733467 1.066916,-10.274909c3.12947,-2.548124 7.733467,-2.069237 10.274909,1.066916l32.043104,39.466965l76.512767,-61.662817c3.142835,-2.528078 7.737922,-2.040281 10.272681,1.102554c2.530305,3.142835 2.035826,7.742377 -1.104781,10.274909z"/>
  <polygon stroke="none" id="svg_5" points="400.22547179460526,366.9141540527344 319.9892962574959,366.9141540527344 188.52396422624588,366.9141540527344 108.37419158220291,366.9141540527344 108.37419158220291,424.7447204589844 400.22547179460526,424.7447204589844 "/>
  <path id="svg_6" d="m224.419416,307.108762l58.232,0c0.471,-74.612 17.062,-101.032 30.429,-122.325c8.272,-13.178 14.807,-23.586 14.807,-42.67c0,-41.024 -33.376,-74.401 -74.401,-74.401c-40.971,0 -74.301,33.377 -74.301,74.401c0,19.084 6.534,29.492 14.807,42.67c13.367,21.293 29.956,47.713 30.427,122.325zm29.067,-200.611c20.869,0 37.847,16.978 37.847,37.845c0,20.817 -16.978,37.751 -37.847,37.751c-20.813,0 -37.747,-16.934 -37.747,-37.751c0,-20.867 16.933,-37.845 37.747,-37.845z"/>
  <polygon stroke="none" id="svg_7" points="221.1514434814453,319.7750628590584 188.2864227294922,319.7750628590584 188.2864227294922,355.0106890797615 318.6944580078125,355.0106890797615 318.6944580078125,319.7750628590584 285.9214172363281,319.7750628590584 "/>
 </g>
</svg>